{"title":"Deadpool 2016 NEW V2 HD-TS XviD AC3-NoGroup","uid":13631433,"size":1988603545,"categoryP":"video","categoryS":"movies","magnet":"?xt=urn:btih:d98f8bc5cb3b51eea71701261fc4a7c336210211&amp;dn=Deadpool+2016+NEW+V2+HD-TS+XviD+AC3-NoGroup&amp;tr=udp%3A%2F%2Ftracker.leechers-paradise.org%3A6969&amp;tr=udp%3A%2F%2Fzer0day.ch%3A1337&amp;tr=udp%3A%2F%2Fopen.demonii.com%3A1337&amp;tr=udp%3A%2F%2Ftracker.coppersurfer.tk%3A6969&amp;tr=udp%3A%2F%2Fexodus.desync.com%3A6969","seeders":6,"leechers":3,"uploader":"Supernova","files":2,"time":1456034068,"description":"iMDB: http://www.imdb.com/title/tt1431045/\r\n\r\n\r\nCPG THANK YOU\r\n \nhttp://boltimg.com/image/Zshw\r\n\r\nA former Special Forces operative turned mercenary is subjected to a rogue experiment that leaves him with accelerated healing powers, adopting the alter ego Deadpool.\r\n\r\n\r\nGeneral\r\nFormat                                   : AVI\r\nFormat/Info                              : Audio Video Interleave\r\nFile size                                : 1.85 GiB\r\nDuration                                 : 1h 40mn\r\nOverall bit rate                         : 2 632 Kbps\r\n\r\nVideo\r\nID                                       : 0\r\nFormat                                   : MPEG-4 Visual\r\nFormat profile                           : Advanced   \r\nFormat settings, BVOP                    : 2\r\nFormat settings, QPel                    : No\r\nFormat settings, GMC                     : No warppoints\r\nFormat settings, Matrix                  : Default (H.263)\r\nMuxing mode                              : Packed bitstream\r\nCodec ID                                 : XVID\r\nCodec ID/Hint                            : XviD\r\nDuration                                 : 1h 40mn\r\nBit rate                                 : 2 431 Kbps\r\nWidth                                    : 720 pixels\r\nHeight                                   : 336 pixels\r\nDisplay aspect ratio                     : 2.143\r\nFrame rate                               : 30.000 fps\r\nColor space                              : YUV\r\nChroma subsampling                       : 4:2:0\r\nBit depth                                : 8 bits\r\nScan type                                : Progressive\r\nCompression mode                         : Lossy\r\nBits/(Pixel*Frame)                       : 0.335\r\nStream size                              : 1.71 GiB (92%)\r\nWriting library                          : XviD 64\r\n\r\nAudio\r\nID                                       : 1\r\nFormat                                   : AC-3\r\nFormat/Info                              : Audio Coding 3\r\nMode extension                           : CM (complete main)\r\nFormat settings, Endianness              : Big\r\nCodec ID                                 : 2000\r\nDuration                                 : 1h 40mn\r\nBit rate mode                            : Constant\r\nBit rate                                 : 192 Kbps\r\nChannel(s)                               : 2 channels\r\nChannel positions                        : Front: L R\r\nSampling rate                            : 48.0 KHz\r\nBit depth                                : 16 bits\r\nCompression mode                         : Lossy\r\nStream size                              : 138 MiB (7%)\r\nAlignment                                : Aligned on interleaves\r\nInterleave, duration                     : 64 ms (1.92 video frames)\r\nInterleave, preload duration             : 192 ms\r\n\r\nSCREENS\r\n \nhttp://boltimg.com/image/ZVCL \nhttp://boltimg.com/image/ZcFp \nhttp://boltimg.com/image/ZiTC","torrent":{"xt":"urn:btih:d98f8bc5cb3b51eea71701261fc4a7c336210211","amp;dn":"Deadpool+2016+NEW+V2+HD-TS+XviD+AC3-NoGroup","amp;tr":["udp%3A%2F%2Ftracker.leechers-paradise.org%3A6969","udp%3A%2F%2Fzer0day.ch%3A1337","udp%3A%2F%2Fopen.demonii.com%3A1337","udp%3A%2F%2Ftracker.coppersurfer.tk%3A6969","udp%3A%2F%2Fexodus.desync.com%3A6969"],"infoHash":"d98f8bc5cb3b51eea71701261fc4a7c336210211","infoHashBuffer":{"type":"Buffer","data":[217,143,139,197,203,59,81,238,167,23,1,38,31,196,167,195,54,33,2,17]},"announce":[],"urlList":[]}}